<?xml version="1.0" encoding="UTF-8" standalone="no"?>
<svg
   width="35.200001mm"
   height="11.5mm"
   viewBox="0 0 1020.7999 333.49998"
   version="1.1"
   id="svg8"
   inkscape:version="1.1 (c68e22c387, 2021-05-23)"
   sodipodi:docname="logo_d.svg"
   xmlns:inkscape="http://www.inkscape.org/namespaces/inkscape"
   xmlns:sodipodi="http://sodipodi.sourceforge.net/DTD/sodipodi-0.dtd"
   xmlns="http://www.w3.org/2000/svg"
   xmlns:svg="http://www.w3.org/2000/svg"
   xmlns:rdf="http://www.w3.org/1999/02/22-rdf-syntax-ns#"
   xmlns:cc="http://creativecommons.org/ns#"
   xmlns:dc="http://purl.org/dc/elements/1.1/">
  <defs
     id="defs2" />
  <sodipodi:namedview
     id="base"
     pagecolor="#ffffff"
     bordercolor="#666666"
     borderopacity="1.0"
     inkscape:pageopacity="0.0"
     inkscape:pageshadow="2"
     inkscape:zoom="5.6568544"
     inkscape:cx="95.371025"
     inkscape:cy="26.516504"
     inkscape:document-units="mm"
     inkscape:current-layer="layer1"
     inkscape:document-rotation="0"
     showgrid="false"
     inkscape:window-width="1920"
     inkscape:window-height="986"
     inkscape:window-x="-11"
     inkscape:window-y="-11"
     inkscape:window-maximized="1"
     scale-x="29"
     inkscape:pagecheckerboard="0" />
  <metadata
     id="metadata5">
    <rdf:RDF>
      <cc:Work
         rdf:about="">
        <dc:format>image/svg+xml</dc:format>
        <dc:type
           rdf:resource="http://purl.org/dc/dcmitype/StillImage" />
        <dc:title />
      </cc:Work>
    </rdf:RDF>
  </metadata>
  <g
     inkscape:label="Capa 1"
     inkscape:groupmode="layer"
     id="layer1">
    <g
       id="g883"
       transform="translate(-313.11808,-611.63718)" />
    <path
       style="fill:#ffffff;stroke-width:0.215072"
       d="m 476.58079,254.7607 c -11.14346,-0.9937 -21.13897,-4.75883 -29.68404,-11.18146 -11.08048,-8.32826 -18.80877,-20.46993 -21.90132,-34.40842 -1.13267,-5.10504 -1.31667,-7.11887 -1.31667,-14.40983 0,-7.118 0.17821,-9.1729 1.21247,-13.97968 4.37637,-20.33955 19.0862,-36.78383 38.75763,-43.32757 13.0958,-4.35635 29.45843,-4.09267 41.96666,0.67628 13.73856,5.23802 24.90097,15.24626 31.50041,28.24331 2.97152,5.85217 4.70233,11.10852 5.80651,17.63406 0.85504,5.05306 0.89601,6.83697 0.82721,36.02456 l -0.0664,28.17443 -0.60096,1.22378 c -0.77305,1.5742 -2.56449,3.22597 -4.13673,3.81424 -3.99636,1.49522 -8.57391,0.22481 -10.60722,-2.94384 -1.19957,-1.86934 -1.32317,-2.84269 -1.32317,-10.41964 0,-3.78954 -0.0843,-6.83711 -0.18913,-6.83711 -0.10403,0 -0.88881,0.8762 -1.74398,1.94713 -8.40652,10.52758 -21.15454,17.62407 -34.95174,19.45674 -3.07914,0.40901 -10.54027,0.58136 -13.54954,0.31302 z m 13.87215,-15.39666 c 7.16235,-1.01469 12.96781,-3.31759 18.80082,-7.45788 2.43776,-1.73032 6.22896,-5.30451 8.14314,-7.67702 3.94309,-4.88725 7.01032,-11.02929 8.55933,-17.13988 1.1133,-4.39185 1.37599,-6.77167 1.37265,-12.4358 -0.003,-5.53548 -0.23563,-7.67609 -1.31837,-12.14378 -3.7861,-15.62272 -16.35615,-28.29558 -31.57874,-31.83698 -5.16218,-1.20094 -12.09666,-1.51515 -17.18294,-0.77859 -14.41669,2.08773 -26.40151,10.85637 -32.95645,24.11244 -6.6519,13.45215 -6.05458,31.44944 1.46688,44.19729 2.69216,4.56284 6.51008,9.06158 10.26158,12.09147 9.37288,7.56996 21.83776,10.85297 34.4321,9.06873 z m 203.3106,15.38732 c -14.94916,-1.1502 -28.24244,-7.28564 -38.24286,-17.6508 -8.67206,-8.98835 -13.98458,-20.29802 -15.84721,-33.73669 -0.44264,-3.1936 -0.37569,-14.65369 0.10554,-18.06604 0.99836,-7.07944 2.70221,-12.66213 5.75547,-18.858 8.35678,-16.95814 24.43511,-28.52677 43.58335,-31.35901 13.36161,-1.97633 26.75401,-0.0765 37.80671,5.3633 6.35,3.12525 11.0689,6.55019 15.9154,11.55127 8.7819,9.06215 14.0137,19.91672 16.0516,33.30244 0.4487,2.94693 0.5072,4.08202 0.5048,9.78577 0,6.7661 -0.1941,8.91678 -1.214,13.65707 -2.4054,11.17919 -7.9453,21.31277 -16.018,29.29997 -3.0499,3.01761 -5.5269,5.03171 -9.0027,7.32012 -2.9042,1.91219 -8.3959,4.68889 -11.5838,5.85706 -8.1667,2.99262 -18.2296,4.271 -27.8143,3.53354 z m 12.4833,-15.39027 c 17.158,-2.34024 30.9662,-14.69713 35.3069,-31.59592 1.2304,-4.79021 1.4941,-7.08537 1.4941,-13.00418 0,-5.92211 -0.2644,-8.22099 -1.4957,-13.00417 -4.4487,-17.28205 -17.8808,-29.32774 -35.5288,-31.86176 -3.4251,-0.49179 -9.8309,-0.49179 -13.2559,0 -9.87427,1.41781 -18.20536,5.6116 -24.88584,12.52729 -6.45153,6.6787 -10.41604,14.83252 -11.9589,24.59605 -0.55259,3.49686 -0.55306,11.98308 0,15.48518 1.52178,9.6514 5.44149,17.68518 11.84238,24.272 6.52201,6.71147 14.35031,10.83474 23.56596,12.41251 4.4711,0.76548 10.0947,0.83071 14.9167,0.173 z m 251.0199,15.39845 c -5.1392,-0.41849 -10.9406,-1.58988 -15.4842,-3.12648 -19.3639,-6.54866 -33.4737,-22.86732 -37.3935,-43.2473 -1.002,-5.20969 -1.1056,-6.50958 -1.1022,-13.83984 0,-7.50463 0.179,-9.51375 1.3151,-15.05504 3.1292,-15.26266 12.0504,-28.5381 24.5979,-36.6033 11.3518,-7.29666 25.5663,-10.02588 40.6012,-7.79551 11.8568,1.75891 22.83814,7.78527 30.54416,16.76206 8.7013,10.13603 13.5983,23.95801 13.6772,38.60542 0.024,4.40771 0.024,4.40932 -0.5742,5.62639 -0.717,1.46004 -1.9319,2.60934 -3.5704,3.37756 l -1.2088,0.56676 -44.76676,0.0563 c -36.3184,0.0456 -44.7868,0.10861 -44.8732,0.33375 -0.1588,0.41388 0.4402,4.24586 1.0642,6.80711 0.7784,3.19511 1.6257,5.50896 3.1925,8.7182 2.3686,4.85142 4.8584,8.28645 8.7411,12.05961 6.8792,6.68495 14.9976,10.47613 25.1323,11.73634 2.9972,0.37268 9.1006,0.31876 12.0566,-0.1065 8.3331,-1.19885 16.28104,-4.39229 21.85144,-8.77984 0.7285,-0.57383 1.89,-1.30815 2.5809,-1.63184 1.1189,-0.52419 1.5031,-0.58852 3.5144,-0.58852 2.0323,0 2.3797,0.0596 3.47152,0.59586 2.2833,1.12127 4.0227,3.64166 4.2214,6.11679 0.2098,2.61412 -0.5989,4.14872 -3.3365,6.33172 -7.64922,6.09953 -19.49036,11.02479 -30.48756,12.68116 -3.2638,0.49159 -10.1702,0.69189 -13.7646,0.39918 z m 41.12164,-68.74346 c 0.2084,-0.54297 -0.3269,-3.93848 -1.1134,-7.06288 -3.6423,-14.46972 -13.24054,-24.81623 -26.24444,-28.29052 -7.7474,-2.06991 -16.9309,-1.84969 -24.5174,0.58793 -12.9832,4.17158 -22.5597,14.94634 -26.2316,29.51389 -0.6782,2.6905 -1.0506,4.88658 -0.8966,5.28776 0.1085,0.2829 4.7873,0.32093 39.4948,0.32093 36.48954,0 39.38164,-0.0262 39.50864,-0.35711 z m -426.96084,67.58667 c -2.71302,-0.67225 -4.49307,-2.31146 -5.28976,-4.87127 -0.39812,-1.27914 -0.40964,-2.80048 -0.40964,-54.07802 0,-51.27754 0.0116,-52.79888 0.40964,-54.07803 0.82756,-2.65898 2.70944,-4.3257 5.56918,-4.93248 3.33029,-0.70661 6.54759,0.16645 8.45414,2.29414 1.665,1.85811 1.77271,2.36434 1.86287,8.75532 0.0434,3.07553 0.1544,5.66913 0.24671,5.76356 0.0923,0.0944 0.73333,-0.53465 1.42448,-1.39796 6.43031,-8.03194 16.14763,-14.00769 25.96016,-15.96444 10.87096,-2.16783 22.9768,-0.59973 27.22918,3.52707 1.22077,1.18471 1.79777,2.42019 1.91901,4.10906 0.20851,2.90454 -1.16537,5.73126 -3.29106,6.77126 -1.71636,0.83973 -3.0401,0.90271 -9.6717,0.46011 -6.33871,-0.42305 -10.33887,-0.37089 -14.3387,0.18699 -10.72981,1.49655 -19.75483,6.8086 -24.81474,14.60572 -1.98232,3.05467 -3.1053,5.78421 -4.0103,9.74765 l -0.47632,2.08598 -0.11732,35.80949 -0.1173,35.80948 -0.6027,1.29043 c -1.08684,2.3271 -2.87392,3.70515 -5.4137,4.17466 -1.6004,0.29585 -3.14556,0.27236 -4.52213,-0.0687 z m 219.539,0.0905 c -2.4785,-0.5278 -4.5455,-2.14667 -5.5683,-4.36114 l -0.6193,-1.34082 v -53.33785 -53.33785 l 0.6182,-1.33826 c 0.7991,-1.73011 2.4011,-3.26297 4.1188,-3.94108 1.0583,-0.4178 1.6834,-0.50799 3.5433,-0.51126 2.0067,-0.004 2.3981,0.0609 3.5137,0.57801 2.2596,1.04744 3.533,2.44634 4.2272,4.64379 0.4274,1.35305 0.4318,1.89745 0.4318,53.91013 0,51.06263 -0.012,52.58039 -0.4096,53.85947 -0.9844,3.16272 -3.6136,5.10555 -7.147,5.2812 -0.9895,0.0492 -2.2084,0.002 -2.7088,-0.10434 z m 83.9276,-0.0256 c -11.1522,-1.17257 -20.739,-6.63286 -27.3006,-15.54949 -3.9121,-5.31613 -6.3039,-11.1612 -7.577,-18.51636 -0.339,-1.95903 -0.3787,-4.96176 -0.4444,-33.68939 l -0.072,-31.53868 -0.4765,-0.12774 c -0.2621,-0.0703 -3.836,-0.12906 -7.9422,-0.13068 -7.0001,-0.003 -7.5393,-0.0305 -8.6462,-0.44463 -2.3634,-0.88425 -4.2207,-3.22861 -4.5376,-5.72732 -0.1537,-1.21194 0.1778,-3.23408 0.6954,-4.24201 0.6106,-1.18907 2.1868,-2.63853 3.5582,-3.27195 l 1.3409,-0.61931 7.9576,-0.10753 7.9577,-0.10754 0.1075,-17.85097 0.1076,-17.85098 0.4955,-1.22626 c 0.6947,-1.71956 2.1257,-3.231983 3.8699,-4.090197 1.358,-0.668197 1.5594,-0.705497 3.8035,-0.704547 2.1197,8.6e-4 2.4997,0.0619 3.6032,0.578147 1.5755,0.737077 3.2562,2.417387 3.9952,3.994177 l 0.5781,1.23361 0.1124,17.95851 c 0.062,9.87718 0.1344,17.98271 0.1613,18.01228 0.027,0.0296 5.6865,0.0553 12.5769,0.0571 9.6585,0.003 12.8062,0.0688 13.7426,0.28924 2.2088,0.51991 3.878,1.81474 4.9674,3.85351 0.4151,0.77689 0.4852,1.23433 0.4852,3.16633 0,2.10154 -0.044,2.33824 -0.6384,3.41079 -0.7235,1.3062 -1.8521,2.35703 -3.3112,3.08297 l -0.9971,0.49608 -13.2701,0.10754 c -9.1691,0.0743 -13.3426,0.1801 -13.5048,0.34235 -0.168,0.16813 -0.2122,8.93164 -0.1557,30.86283 0.087,33.7877 0.01,31.86494 1.4477,36.15592 2.3008,6.86749 7.1769,12.05444 13.5021,14.36285 2.8149,1.02732 4.9583,1.317 10.9908,1.4854 5.3831,0.15031 5.5311,0.16644 6.6017,0.72023 0.6023,0.31155 1.5859,1.10358 2.1859,1.76006 2.2037,2.41115 2.7503,6.5979 1.2484,9.5618 -1.0375,2.04738 -3.5814,3.84119 -6.1338,4.32523 -1.3394,0.25402 -8.5989,0.24 -11.0849,-0.0213 z M 406.6824,253.34714 c -13.39677,-2.37459 -23.00737,-14.58091 -24.62187,-31.27201 -0.17124,-1.77032 -0.22107,-20.84419 -0.17533,-67.10699 l 0.0639,-64.633653 0.70107,-1.42406 c 1.31153,-2.66407 3.49213,-4.03159 6.72234,-4.21577 2.73212,-0.15577 4.48349,0.40685 6.19291,1.98946 0.87018,0.80563 1.46143,1.59497 1.89018,2.52343 l 0.6239,1.35109 0.11831,65.274323 c 0.13169,72.66455 -0.008,66.37206 1.57472,71.00774 1.01292,2.96705 2.31636,5.14878 4.22145,7.06602 2.85979,2.878 4.49567,3.43853 10.03545,3.43853 2.0394,0 4.18713,0.10276 4.77277,0.22836 2.1778,0.46705 3.83258,2.01105 4.79297,4.47208 0.37162,0.95227 0.47617,1.67775 0.48486,3.36475 0.01,1.8861 -0.0588,2.30147 -0.55715,3.37588 -1.04533,2.25383 -3.47257,4.09357 -6.15125,4.66238 -1.59925,0.33959 -8.57425,0.27333 -10.68925,-0.10156 z m 383.47334,-140.8308 c -4.218,-1.04197 -7.7862,-4.7007 -8.6824,-8.90269 -0.5577,-2.61482 -0.1561,-6.049811 0.9674,-8.273779 0.7851,-1.554341 3.1354,-3.811679 4.8447,-4.653154 1.9839,-0.97664 3.4429,-1.30552 5.8049,-1.30843 2.4432,-0.003 4.1535,0.45 6.0984,1.615278 3.6711,2.199518 5.4844,5.46896 5.4844,9.888505 0,3.54493 -1.0499,6.11333 -3.4879,8.53255 -2.873,2.85092 -7.1621,4.0571 -11.0295,3.10172 z"
       id="path28" />
    <circle
       style="fill:#1f73be;fill-opacity:1;stroke-width:0.264583"
       id="path1295"
       cx="168.04919"
       cy="167.30914"
       r="160.89624" />
    <path
       id="path1332"
       style="fill:#39f6fe;fill-opacity:1;stroke-width:0.264583"
       d="m 167.82561,40.052847 a 127.25636,127.25636 0 0 0 -31.85387,4.10931 127.25636,127.25636 0 0 0 -90.668866,89.567103 127.25636,127.25636 0 0 0 32.448666,123.24881 l 0.04703,-0.0465 a 63.610132,63.610132 0 0 0 46.3305,20.02463 63.610132,63.610132 0 0 0 63.61007,-63.61008 63.610132,63.610132 0 0 0 -63.61007,-63.61059 63.610132,63.610132 0 0 0 -17.89504,2.56935 63.610132,63.610132 0 0 1 61.81535,-48.60581 63.610132,63.610132 0 0 1 45.36984,19.02519 L 258.81489,78.114091 A 127.25636,127.25636 0 0 0 167.82561,40.052847 Z m 95.66755,95.411193 a 31.844922,31.844922 0 0 0 -31.84457,31.84509 31.844922,31.844922 0 0 0 31.84457,31.84456 31.844922,31.844922 0 0 0 31.84509,-31.84456 31.844922,31.844922 0 0 0 -31.84509,-31.84509 z" />
  </g>
</svg>
