<?xml version="1.0" encoding="UTF-8" standalone="no"?>
<svg
   width="1600.136"
   height="456.287"
   viewBox="0 0 1600.136 456.287"
   version="1.1"
   id="svg6"
   sodipodi:docname="banner-bg-dark.svg"
   inkscape:version="1.1 (c68e22c387, 2021-05-23)"
   xmlns:inkscape="http://www.inkscape.org/namespaces/inkscape"
   xmlns:sodipodi="http://sodipodi.sourceforge.net/DTD/sodipodi-0.dtd"
   xmlns="http://www.w3.org/2000/svg"
   xmlns:svg="http://www.w3.org/2000/svg"
   xmlns:rdf="http://www.w3.org/1999/02/22-rdf-syntax-ns#"
   xmlns:cc="http://creativecommons.org/ns#"
   xmlns:dc="http://purl.org/dc/elements/1.1/">
  <metadata
     id="metadata12">
    <rdf:RDF>
      <cc:Work
         rdf:about="">
        <dc:format>image/svg+xml</dc:format>
        <dc:type
           rdf:resource="http://purl.org/dc/dcmitype/StillImage" />
      </cc:Work>
    </rdf:RDF>
  </metadata>
  <defs
     id="defs10" />
  <sodipodi:namedview
     pagecolor="#ffffff"
     bordercolor="#666666"
     borderopacity="1"
     objecttolerance="10"
     gridtolerance="10"
     guidetolerance="10"
     inkscape:pageopacity="0"
     inkscape:pageshadow="2"
     inkscape:window-width="1681"
     inkscape:window-height="1008"
     id="namedview8"
     showgrid="false"
     inkscape:zoom="0.46308565"
     inkscape:cx="691.01688"
     inkscape:cy="298.00103"
     inkscape:window-x="1089"
     inkscape:window-y="0"
     inkscape:window-maximized="0"
     inkscape:current-layer="svg6"
     inkscape:pagecheckerboard="0" />
  <g
     id="g883"
     transform="matrix(0.20997373,0,0,0.20997373,531.10546,188.42846)"
     style="fill:#f9f9f9" />
  <path
     id="path1332"
     style="fill:#333333;fill-opacity:1;stroke-width:0.346229;opacity:0.3"
     d="M 172.47884,5.8817322 A 166.52533,166.52533 0 0 0 130.79549,11.259055 166.52533,166.52533 0 0 0 12.147884,128.46493 166.52533,166.52533 0 0 0 54.609564,289.74602 l 0.0623,-0.0623 a 83.239049,83.239049 0 0 0 60.627256,26.20389 83.239049,83.239049 0 0 0 83.23894,-83.23901 83.239049,83.239049 0 0 0 -83.23894,-83.23961 83.239049,83.239049 0 0 0 -23.417126,3.36217 83.239049,83.239049 0 0 1 80.890426,-63.604652 83.239049,83.239049 0 0 1 59.37011,24.896022 L 291.54648,55.686498 A 166.52533,166.52533 0 0 0 172.47959,5.8802362 Z M 297.66768,130.73504 a 41.671679,41.671679 0 0 0 -41.67126,41.67188 41.671679,41.671679 0 0 0 41.67126,41.67118 41.671679,41.671679 0 0 0 41.67189,-41.67118 41.671679,41.671679 0 0 0 -41.67189,-41.67188 z" />
  <path
     id="path1332-10-8"
     style="fill:#333333;fill-opacity:1;stroke-width:0.167414;opacity:0.3"
     d="m 892.7716,24.76935 a 80.521122,80.521122 0 0 0 -20.1554,2.60014 80.521122,80.521122 0 0 0 -57.3705,56.67335 80.521122,80.521122 0 0 0 20.5318,77.98534 l 0.03,-0.0301 A 40.249142,40.249142 0 0 0 865.123,174.66862 40.249142,40.249142 0 0 0 905.3721,134.4195 40.249142,40.249142 0 0 0 865.123,94.17009 40.249142,40.249142 0 0 0 853.7999,95.79582 40.249142,40.249142 0 0 1 892.9135,65.04063 40.249142,40.249142 0 0 1 921.621,77.07878 L 950.3452,48.85181 A 80.521122,80.521122 0 0 0 892.7718,24.76865 Z m 60.5335,60.37117 a 20.14979,20.14979 0 0 0 -20.1497,20.14989 20.14979,20.14979 0 0 0 20.1497,20.14955 20.14979,20.14979 0 0 0 20.1499,-20.14955 20.14979,20.14979 0 0 0 -20.1499,-20.14989 z" />
  <path
     id="path1332-10-8-6"
     style="fill:#333333;fill-opacity:1;stroke-width:0.167414;opacity:0.3"
     d="m 451.1686,54.616442 a 80.521122,80.521122 0 0 0 -20.1554,2.60014 80.521122,80.521122 0 0 0 -57.3705,56.673348 80.521122,80.521122 0 0 0 20.5318,77.98534 l 0.03,-0.0301 a 40.249142,40.249142 0 0 0 29.3155,12.67054 40.249142,40.249142 0 0 0 40.2491,-40.24912 40.249142,40.249142 0 0 0 -40.2491,-40.24941 40.249142,40.249142 0 0 0 -11.3231,1.62573 40.249142,40.249142 0 0 1 39.1136,-30.755188 40.249142,40.249142 0 0 1 28.7075,12.038148 l 28.7242,-28.226968 a 80.521122,80.521122 0 0 0 -57.5734,-24.08316 z m 60.5335,60.371168 a 20.14979,20.14979 0 0 0 -20.1497,20.14989 20.14979,20.14979 0 0 0 20.1497,20.14955 20.14979,20.14979 0 0 0 20.1499,-20.14955 20.14979,20.14979 0 0 0 -20.1499,-20.14989 z" />
  <path
     id="path1332-10-8-6-4"
     style="fill:#333333;fill-opacity:1;stroke-width:0.167414;opacity:0.3"
     d="m 1516.1056,302.20645 a 80.521122,80.521122 0 0 0 -20.1554,2.60014 80.521122,80.521122 0 0 0 -57.3705,56.67334 80.521122,80.521122 0 0 0 20.5318,77.98534 l 0.03,-0.0301 a 40.249142,40.249142 0 0 0 29.3155,12.67054 40.249142,40.249142 0 0 0 40.2491,-40.24912 40.249142,40.249142 0 0 0 -40.2491,-40.24941 40.249142,40.249142 0 0 0 -11.3231,1.62573 40.249142,40.249142 0 0 1 39.1136,-30.75518 40.249142,40.249142 0 0 1 28.7075,12.03814 l 28.7242,-28.22696 a 80.521122,80.521122 0 0 0 -57.5734,-24.08316 z m 60.5335,60.37116 a 20.14979,20.14979 0 0 0 -20.1497,20.14989 20.14979,20.14979 0 0 0 20.1497,20.14955 20.14979,20.14979 0 0 0 20.1499,-20.14955 20.14979,20.14979 0 0 0 -20.1499,-20.14989 z" />
  <path
     id="path1332-1"
     style="fill:#333333;fill-opacity:1;stroke-width:0.346229;opacity:0.3"
     d="m 642.6789,435.64802 c 14.06579,-0.0248 28.07176,-1.83165 41.68335,-5.37733 57.67311,-15.02252 102.92114,-59.72073 118.64761,-117.20587 l -79.73411,-24.30623 c -9.05982,37.32483 -42.4818,63.60474 -80.89043,63.60465 -22.32813,-5e-5 -43.72012,-8.97048 -59.37011,-24.89602 l -59.40395,58.37603 c 31.38004,31.93274 74.29636,49.88485 119.06689,49.80626 z"
     sodipodi:nodetypes="ccccscccc" />
  <path
     id="path1332-8"
     style="fill:#333333;fill-opacity:1;stroke-width:0.346229;opacity:0.3"
     d="m 1142.0235,119.24527 a 166.52533,166.52533 0 0 0 -41.6834,5.37732 166.52533,166.52533 0 0 0 -118.64759,117.20587 166.52533,166.52533 0 0 0 42.46169,161.28109 l 0.062,-0.0623 a 83.239049,83.239049 0 0 0 60.6273,26.20389 83.239049,83.239049 0 0 0 83.2389,-83.23901 83.239049,83.239049 0 0 0 -83.2389,-83.23962 83.239049,83.239049 0 0 0 -23.4172,3.36217 83.239049,83.239049 0 0 1 80.8905,-63.60465 83.239049,83.239049 0 0 1 59.3701,24.89602 l 59.4039,-58.37603 a 166.52533,166.52533 0 0 0 -119.0669,-49.80625 z m 125.1888,124.8533 a 41.671679,41.671679 0 0 0 -41.6712,41.67188 41.671679,41.671679 0 0 0 41.6712,41.67118 41.671679,41.671679 0 0 0 41.6719,-41.67118 41.671679,41.671679 0 0 0 -41.6719,-41.67188 z" />
  <circle
     style="fill:#333333;fill-opacity:1;stroke-width:0.0324738;opacity:0.3"
     id="path1295-3"
     cx="390.79092"
     cy="361.30182"
     r="19.747705" />
  <circle
     style="fill:#333333;fill-opacity:1;stroke-width:0.0899736;opacity:0.3"
     id="path1295-8-6"
     cx="620.62866"
     cy="135.89818"
     r="54.713997" />
  <circle
     style="fill:#333333;fill-opacity:1;stroke-width:0.0799297;opacity:0.3"
     id="path1295-8-6-2"
     cx="1393.9933"
     cy="230.98428"
     r="48.606213" />
  <path
     id="path1332-1-0-6-6-1"
     style="fill:#333333;fill-opacity:1;stroke-width:0.234234;opacity:0.3"
     d="m 388.90013,247.47578 c -9.51587,0.0169 -18.9913,1.23915 -28.19988,3.63791 -39.01742,10.1631 -69.62893,40.40267 -80.26833,79.29287 l 53.94229,16.44382 c 6.12918,-25.25124 28.74009,-43.03028 54.72452,-43.03022 15.10559,4e-5 29.57786,6.06876 40.16549,16.84281 L 469.45255,281.17 c -21.22943,-21.60333 -50.26342,-33.74842 -80.55188,-33.69524 z"
     sodipodi:nodetypes="ccccscccc" />
  <circle
     style="fill:#333333;fill-opacity:1;stroke-width:0.0224508;opacity:0.3"
     id="path1295-3-0"
     cx="888.7926"
     cy="421.12881"
     r="13.65263" />
  <path
     id="path1332-1-0-6-6-1-4"
     style="fill:#333333;fill-opacity:1;stroke-width:0.161938;opacity:0.3"
     d="m 887.48541,342.43488 c -6.57882,0.0117 -13.12968,0.85669 -19.49606,2.51508 -26.9748,7.02629 -48.13815,27.9325 -55.49373,54.81935 l 37.29315,11.36848 c 4.23743,-17.45752 19.86954,-29.74911 37.83395,-29.74906 10.44329,2e-5 20.44873,4.19565 27.76852,11.64432 l 27.78431,-27.30357 c -14.67703,-14.93553 -34.74975,-23.33207 -55.68976,-23.2953 z"
     sodipodi:nodetypes="ccccscccc" />
  <circle
     style="fill:#333333;fill-opacity:1;stroke-width:0.0324738;opacity:0.3"
     id="path1295-3-8"
     cx="1484.7708"
     cy="141.71043"
     r="19.747705" />
  <circle
     style="fill:#333333;fill-opacity:1;stroke-width:0.0431269;opacity:0.3"
     id="path1295-3-8-2"
     cx="1044.2427"
     cy="61.862541"
     r="26.225986" />
  <circle
     style="fill:#333333;fill-opacity:1;stroke-width:0.0520045;opacity:0.3"
     id="path1295-3-8-2-5"
     cx="1156.3735"
     cy="44.268269"
     r="31.624556" />
  <path
     id="path1332-1-0-6-6-1-1"
     style="fill:#333333;fill-opacity:1;stroke-width:0.234234;opacity:0.3"
     d="m 1482.88,27.884376 c -9.5159,0.0169 -18.9913,1.23915 -28.1999,3.63791 -39.0174,10.1631 -69.6289,40.40267 -80.2683,79.292874 l 53.9422,16.44382 c 6.1292,-25.25124 28.7401,-43.030284 54.7246,-43.030224 15.1056,4e-5 29.5778,6.06876 40.1655,16.842814 l 40.1883,-39.492974 c -21.2294,-21.60333 -50.2634,-33.74842 -80.5519,-33.69524 z"
     sodipodi:nodetypes="ccccscccc" />
  <circle
     style="fill:#333333;fill-opacity:1;stroke-width:0.0667472;opacity:0.3"
     id="path1295-8-6-6"
     cx="779.81281"
     cy="227.89667"
     r="40.589748" />
  <circle
     style="fill:#333333;fill-opacity:1;stroke-width:0.0667472;opacity:0.3"
     id="path1295-8-6-6-1"
     cx="1289.1783"
     cy="77.739395"
     r="40.589748" />
  <path
     id="path1332-1-0-6-6-8"
     style="fill:#333333;fill-opacity:1;stroke-width:0.114054;opacity:0.3"
     d="m 643.77083,320.29147 c 4.63352,-0.008 9.24734,-0.60338 13.73123,-1.77139 18.99856,-4.94867 33.90405,-19.67307 39.08464,-38.60968 l -26.26583,-8.00691 c -2.98444,12.29546 -13.99428,20.95252 -26.64674,20.9525 -7.35529,-2e-5 -14.4022,-2.95504 -19.55757,-8.2012 l -19.56871,19.23011 c 10.33714,10.51921 24.47452,16.43296 39.22272,16.40706 z"
     sodipodi:nodetypes="ccccscccc" />
  <circle
     style="fill:#333333;fill-opacity:1;stroke-width:0.081813;opacity:0.3"
     id="path1295-8-6-6-9"
     cx="169.23351"
     cy="398.05988"
     r="49.751427" />
  <circle
     style="fill:#333333;fill-opacity:1;stroke-width:0.0457902;opacity:0.3"
     id="path1295-3-3"
     cx="297.19122"
     cy="397.87457"
     r="27.845558" />
</svg>
