<?xml version="1.0" encoding="UTF-8" standalone="no"?>
<svg
   xmlns:dc="http://purl.org/dc/elements/1.1/"
   xmlns:cc="http://creativecommons.org/ns#"
   xmlns:rdf="http://www.w3.org/1999/02/22-rdf-syntax-ns#"
   xmlns:svg="http://www.w3.org/2000/svg"
   xmlns="http://www.w3.org/2000/svg"
   xmlns:sodipodi="http://sodipodi.sourceforge.net/DTD/sodipodi-0.dtd"
   xmlns:inkscape="http://www.inkscape.org/namespaces/inkscape"
   width="1600.136"
   height="456.287"
   viewBox="0 0 1600.136 456.287"
   version="1.1"
   id="svg6"
   sodipodi:docname="banner-bg.svg"
   inkscape:version="1.0.2 (e86c870879, 2021-01-15, custom)">
  <metadata
     id="metadata12">
    <rdf:RDF>
      <cc:Work
         rdf:about="">
        <dc:format>image/svg+xml</dc:format>
        <dc:type
           rdf:resource="http://purl.org/dc/dcmitype/StillImage" />
      </cc:Work>
    </rdf:RDF>
  </metadata>
  <defs
     id="defs10" />
  <sodipodi:namedview
     pagecolor="#ffffff"
     bordercolor="#666666"
     borderopacity="1"
     objecttolerance="10"
     gridtolerance="10"
     guidetolerance="10"
     inkscape:pageopacity="0"
     inkscape:pageshadow="2"
     inkscape:window-width="1681"
     inkscape:window-height="1008"
     id="namedview8"
     showgrid="false"
     inkscape:zoom="0.654902"
     inkscape:cx="761.84239"
     inkscape:cy="369.48255"
     inkscape:window-x="1089"
     inkscape:window-y="0"
     inkscape:window-maximized="0"
     inkscape:current-layer="svg6" />
  <g
     id="g883"
     transform="matrix(0.20997373,0,0,0.20997373,531.10546,188.42846)"
     style="fill:#f9f9f9" />
  <path
     id="path1332"
     style="fill:#f9f9f9;fill-opacity:1;stroke-width:0.346229"
     d="M 172.47884,5.8817322 A 166.52533,166.52533 0 0 0 130.79549,11.259055 166.52533,166.52533 0 0 0 12.147884,128.46493 166.52533,166.52533 0 0 0 54.609564,289.74602 l 0.0623,-0.0623 a 83.239049,83.239049 0 0 0 60.627256,26.20389 83.239049,83.239049 0 0 0 83.23894,-83.23901 83.239049,83.239049 0 0 0 -83.23894,-83.23961 83.239049,83.239049 0 0 0 -23.417126,3.36217 83.239049,83.239049 0 0 1 80.890426,-63.604652 83.239049,83.239049 0 0 1 59.37011,24.896022 L 291.54648,55.686498 A 166.52533,166.52533 0 0 0 172.47959,5.8802362 Z M 297.66768,130.73504 a 41.671679,41.671679 0 0 0 -41.67126,41.67188 41.671679,41.671679 0 0 0 41.67126,41.67118 41.671679,41.671679 0 0 0 41.67189,-41.67118 41.671679,41.671679 0 0 0 -41.67189,-41.67188 z" />
  <path
     id="path1332-1"
     style="fill:#f9f9f9;fill-opacity:1;stroke-width:0.346229"
     d="m 642.6789,435.64802 c 14.06579,-0.0248 28.07176,-1.83165 41.68335,-5.37733 57.67311,-15.02252 102.92114,-59.72073 118.64761,-117.20587 l -79.73411,-24.30623 c -9.05982,37.32483 -42.4818,63.60474 -80.89043,63.60465 -22.32813,-5e-5 -43.72012,-8.97048 -59.37011,-24.89602 l -59.40395,58.37603 c 31.38004,31.93274 74.29636,49.88485 119.06689,49.80626 z"
     sodipodi:nodetypes="ccccscccc" />
  <path
     id="path1332-1-0"
     style="fill:#f9f9f9;fill-opacity:1;stroke-width:0.577818"
     d="m 1560.6559,264.552 c -23.4744,-0.0417 -46.8487,-3.05674 -69.565,-8.97412 -96.2502,-25.0709 -171.7641,-99.66725 -198.0099,-195.603696 l 133.0674,-40.564366 c 15.12,62.290972 70.8976,106.149222 134.9973,106.149052 37.2633,0 72.9642,-14.9706 99.0822,-41.548671 l 99.1387,97.423271 c -52.3698,53.29213 -123.9925,83.25221 -198.7095,83.12103 z"
     sodipodi:nodetypes="ccccscccc" />
  <path
     id="path1332-8"
     style="fill:#f9f9f9;fill-opacity:1;stroke-width:0.346229"
     d="m 1135.5452,114.92641 a 166.52533,166.52533 0 0 0 -41.6834,5.37732 166.52533,166.52533 0 0 0 -118.64757,117.20587 166.52533,166.52533 0 0 0 42.46167,161.28109 l 0.062,-0.0623 a 83.239049,83.239049 0 0 0 60.6273,26.20389 83.239049,83.239049 0 0 0 83.2389,-83.23901 83.239049,83.239049 0 0 0 -83.2389,-83.23962 83.239049,83.239049 0 0 0 -23.4172,3.36217 83.239049,83.239049 0 0 1 80.8905,-63.60465 83.239049,83.239049 0 0 1 59.3701,24.89602 l 59.4039,-58.37603 a 166.52533,166.52533 0 0 0 -119.0669,-49.80625 z m 125.1888,124.8533 a 41.671679,41.671679 0 0 0 -41.6712,41.67188 41.671679,41.671679 0 0 0 41.6712,41.67118 41.671679,41.671679 0 0 0 41.6719,-41.67118 41.671679,41.671679 0 0 0 -41.6719,-41.67188 z" />
  <circle
     style="fill:#f9f9f9;fill-opacity:1;stroke-width:0.0324738"
     id="path1295-3"
     cx="390.79092"
     cy="361.30182"
     r="19.747705" />
  <path
     id="path1332-1-0-6"
     style="fill:#f9f9f9;fill-opacity:1;stroke-width:0.483571"
     d="m 620.4399,-94.37941 c -19.64543,0.03464 -39.20728,2.558235 -58.21832,7.51041 -80.55089,20.981655 -143.74794,83.410775 -165.71279,163.699137 l 111.36306,33.948053 c 12.65368,-52.130873 59.33351,-88.835504 112.97809,-88.83538 31.18525,7e-5 61.06303,12.528894 82.92105,34.771787 l 82.96834,-81.532663 C 742.91144,-69.417892 682.97106,-94.491255 620.44096,-94.381483 Z"
     sodipodi:nodetypes="ccccscccc" />
  <circle
     style="fill:#f9f9f9;fill-opacity:1;stroke-width:0.0899736"
     id="path1295-8-6"
     cx="620.62866"
     cy="135.89818"
     r="54.713997" />
  <path
     id="path1332-1-0-6-6"
     style="fill:#f9f9f9;fill-opacity:1;stroke-width:0.483571"
     d="m 898.07045,154.27594 c 19.6454,-0.035 39.2073,-2.5582 58.2183,-7.5104 80.55095,-20.9816 143.74795,-83.410806 165.71285,-163.699106 l -111.3631,-33.94808 c -12.6536,52.13088 -59.33355,88.83548 -112.97805,88.83538 -31.1853,-10e-5 -61.06312,-12.528901 -82.92112,-34.7718 l -82.9683,81.5327 c 43.8279,44.599806 103.7682,69.673206 166.29832,69.563406 z"
     sodipodi:nodetypes="ccccscccc" />
  <path
     id="path1332-1-0-6-6-1"
     style="fill:#f9f9f9;fill-opacity:1;stroke-width:0.234234"
     d="m 388.90013,247.47578 c -9.51587,0.0169 -18.9913,1.23915 -28.19988,3.63791 -39.01742,10.1631 -69.62893,40.40267 -80.26833,79.29287 l 53.94229,16.44382 c 6.12918,-25.25124 28.74009,-43.03028 54.72452,-43.03022 15.10559,4e-5 29.57786,6.06876 40.16549,16.84281 L 469.45255,281.17 c -21.22943,-21.60333 -50.26342,-33.74842 -80.55188,-33.69524 z"
     sodipodi:nodetypes="ccccscccc" />
  <path
     id="path1332-1-0-6-6-1-8"
     style="fill:#f9f9f9;fill-opacity:1;stroke-width:0.450986"
     d="m 882.06454,410.18467 c 18.32156,0.0326 36.56523,2.38583 54.29514,7.00432 75.12292,19.56771 134.06142,77.79002 154.54612,152.66796 l -103.85879,31.6604 c -11.80093,-48.61792 -55.33525,-82.84911 -105.36485,-82.849 -29.08382,8e-5 -56.94827,11.68459 -77.33335,32.42861 l -77.37733,-76.03851 c 40.87447,-41.59435 96.77559,-64.97813 155.09202,-64.87573 z"
     sodipodi:nodetypes="ccccscccc" />
  <circle
     style="fill:#f9f9f9;fill-opacity:1;stroke-width:0.0667472"
     id="path1295-8-6-6"
     cx="779.81281"
     cy="227.89667"
     r="40.589748" />
  <path
     id="path1332-1-0-6-1-6"
     style="fill:#f9f9f9;fill-opacity:1;stroke-width:0.485307"
     d="m 1520.4702,297.60779 c 19.7159,0.0347 39.348,2.56742 58.4272,7.53737 80.8402,21.05699 144.2641,83.71025 166.3079,164.28686 l -111.7629,34.06993 c -12.6991,-52.31803 -59.5466,-89.15444 -113.3838,-89.15432 -31.2972,8e-5 -61.2823,12.57387 -83.2187,34.89662 l -83.2662,-81.82537 c 43.9853,-44.75996 104.1407,-69.92334 166.8954,-69.81316 z"
     sodipodi:nodetypes="ccccscccc" />
  <circle
     style="fill:#f9f9f9;fill-opacity:1;stroke-width:0.0975064"
     id="path1295-8-6-9"
     cx="1346.4912"
     cy="481.19312"
     r="59.294834" />
  <path
     id="path1332-1-0-6-6-8"
     style="fill:#f9f9f9;fill-opacity:1;stroke-width:0.114054"
     d="m 643.77083,320.29147 c 4.63352,-0.008 9.24734,-0.60338 13.73123,-1.77139 18.99856,-4.94867 33.90405,-19.67307 39.08464,-38.60968 l -26.26583,-8.00691 c -2.98444,12.29546 -13.99428,20.95252 -26.64674,20.9525 -7.35529,-2e-5 -14.4022,-2.95504 -19.55757,-8.2012 l -19.56871,19.23011 c 10.33714,10.51921 24.47452,16.43296 39.22272,16.40706 z"
     sodipodi:nodetypes="ccccscccc" />
  <circle
     style="fill:#f9f9f9;fill-opacity:1;stroke-width:0.081813"
     id="path1295-8-6-6-9"
     cx="171.23351"
     cy="408.05988"
     r="49.751427" />
  <circle
     style="fill:#f9f9f9;fill-opacity:1;stroke-width:0.0457902"
     id="path1295-3-3"
     cx="297.19122"
     cy="397.87457"
     r="27.845558" />
  <path
     id="path1332-1-0-6-6-1-8-2"
     style="fill:#f9f9f9;fill-opacity:1;stroke-width:0.450986"
     d="m 458.99715,421.23518 c 18.32156,0.0326 36.56523,2.38583 54.29514,7.00432 75.1229,19.56771 134.0614,77.79002 154.5461,152.66796 l -103.8588,31.6604 c -11.8009,-48.61792 -55.33522,-82.84911 -105.36482,-82.849 -29.08382,8e-5 -56.94827,11.68459 -77.33335,32.42861 l -77.37733,-76.03851 c 40.87447,-41.59435 96.77559,-64.97813 155.09202,-64.87573 z"
     sodipodi:nodetypes="ccccscccc" />
</svg>
